# xmcd CD database file
#
# Track frame offsets:
#	150
#	17462
#	28045
#	49230
#	64465
#	85260
#	106750
#	122305
#	146287
#	156947
#	178795
#	189475
#	223885
#	234692
#	247335
#	278875
#	299162
#
# Disc length: 4216 seconds
#
# Revision: 0
# Processed by: cddbd v1.5.2PL0 Copyright (c) Steve Scherf et al.
# Submitted via: CDex 2.11
#
DISCID=03107611
DTITLE=Ella Fitzgerald - Too Darn Hot Best Of Ella Fitzgerald
DYEAR=1900
DGENRE=Jazz
TTITLE0=Too Darn Hot
TTITLE1=I Hear Music
TTITLE2=I Ain't Got Nothin' But The Blues
TTITLE3=Ev'rything I've Got
TTITLE4=I Loves You Porgy
TTITLE5=Mack The Knife
TTITLE6=I'm Putting All My Eggs In One Basket
TTITLE7=The Man That Got Away
TTITLE8=Just You, Just Me
TTITLE9=I've Got The World On A String
TTITLE10=A-Tisket, A-Tasket
TTITLE11=These Foolish Things
TTITLE12=Heat Wave
TTITLE13=I Never Had A Chance
TTITLE14=How High The Moon?
TTITLE15=In The Evening (When The Sun Goes Down)
TTITLE16=Signing Off
EXTD=
EXTT0=
EXTT1=
EXTT2=
EXTT3=
EXTT4=
EXTT5=
EXTT6=
EXTT7=
EXTT8=
EXTT9=
EXTT10=
EXTT11=
EXTT12=
EXTT13=
EXTT14=
EXTT15=
EXTT16=
PLAYORDER=
